HIERARCHY
ROOT Hips
{
	OFFSET -3.958830 18.904000 13.208200
	CHANNELS 6 Xposition Yposition Zposition Zrotation Yrotation Xrotation 
	JOINT LHipJoint
	{
		OFFSET 0.000000 0.000000 0.000000
		CHANNELS 3 Zrotation Yrotation Xrotation
		JOINT LeftUpLeg
		{
			OFFSET 1.800000 -1.400000 0.085000
			CHANNELS 3 Zrotation Yrotation Xrotation
			JOINT LeftLeg
			{
				OFFSET 2.215000 -6.000000 0.000000
				CHANNELS 3 Zrotation Yrotation Xrotation
				JOINT LeftFoot
				{
					OFFSET 2.500000 -6.900000 0.000000
					CHANNELS 3 Zrotation Yrotation Xrotation
					JOINT LeftToeBase
					{
						OFFSET 0.200000 -0.500000 1.950000
						CHANNELS 3 Zrotation Yrotation Xrotation
						End Site
						{
							OFFSET 0.000000 0.000000 0.000000
						}
					}
				}
			}
		}
	}
	JOINT RHipJoint
	{
		OFFSET 0.000000 0.000000 0.000000
		CHANNELS 3 Zrotation Yrotation Xrotation
		JOINT RightUpLeg
		{
			OFFSET -1.800000 -1.400000 0.085000
			CHANNELS 3 Zrotation Yrotation Xrotation
			JOINT RightLeg
			{
				OFFSET -2.215000 -6.000000 0.000000
				CHANNELS 3 Zrotation Yrotation Xrotation
				JOINT RightFoot
				{
					OFFSET -2.500000 -6.900000 0.000000
					CHANNELS 3 Zrotation Yrotation Xrotation
					JOINT RightToeBase
					{
						OFFSET -0.200000 -0.500000 1.950000
						CHANNELS 3 Zrotation Yrotation Xrotation
						End Site
						{
							OFFSET 0.000000 0.000000 0.000000
						}
					}
				}
			}
		}
	}
	JOINT LowerBack
	{
		OFFSET 0.000000 0.000000 0.000000
		CHANNELS 3 Zrotation Yrotation Xrotation
		JOINT Spine
		{
			OFFSET -0.087000 1.940000 -0.288900
			CHANNELS 3 Zrotation Yrotation Xrotation
			JOINT Spine1
			{
				OFFSET 0.000000 1.950000 0.060000
				CHANNELS 3 Zrotation Yrotation Xrotation
				JOINT Neck
				{
					OFFSET 0.000000 0.000000 0.000000
					CHANNELS 3 Zrotation Yrotation Xrotation
					JOINT Neck1
					{
						OFFSET 0.000000 1.600000 0.340000
						CHANNELS 3 Zrotation Yrotation Xrotation
						JOINT Head
						{
							OFFSET 0.000000 1.667000 -0.240000
							CHANNELS 3 Zrotation Yrotation Xrotation
							End Site
							{
								OFFSET 0.000000 0.000000 0.000000
							}
						}
					}
				}
				JOINT LeftShoulder
				{
					OFFSET 0.000000 0.000000 0.000000
					CHANNELS 3 Zrotation Yrotation Xrotation
					JOINT LeftArm
					{
						OFFSET 2.700000 1.550000 -0.730000
						CHANNELS 3 Zrotation Yrotation Xrotation
						JOINT LeftForeArm
						{
							OFFSET 5.450000 0.000000 0.000000
							CHANNELS 3 Zrotation Yrotation Xrotation
							JOINT LeftHand
							{
								OFFSET 3.450000 0.000000 0.000000
								CHANNELS 3 Zrotation Yrotation Xrotation
								JOINT LeftHandIndex1
								{
									OFFSET 0.750000 0.000000 0.000000
									CHANNELS 3 Zrotation Yrotation Xrotation
									End Site
									{
										OFFSET 0.000000 0.000000 0.000000
									}
								}
							}
						}
					}
				}
				JOINT RightShoulder
				{
					OFFSET 0.000000 0.000000 0.000000
					CHANNELS 3 Zrotation Yrotation Xrotation
					JOINT RightArm
					{
						OFFSET -2.700000 1.550000 -0.730000
						CHANNELS 3 Zrotation Yrotation Xrotation
						JOINT RightForeArm
						{
							OFFSET -5.450000 0.000000 0.000000
							CHANNELS 3 Zrotation Yrotation Xrotation
							JOINT RightHand
							{
								OFFSET -3.450000 0.000000 0.000000
								CHANNELS 3 Zrotation Yrotation Xrotation
								JOINT RightHandIndex1
								{
									OFFSET -0.750000 0.000000 0.000000
									CHANNELS 3 Zrotation Yrotation Xrotation
									End Site
									{
										OFFSET 0.000000 0.000000 0.000000
									}
								}
							}
						}
					}
				}
			}
		}
	}
}
MOTION
Frames: 8
Frame Time: 0.016667
0.195240 17.183860 -4.846030 -3.838448 -6.543368 8.190750 -15.085625 12.936439 2.826857 2.882398 -1.622108 -13.890373 -9.146109 5.534792 9.547804 -0.232283 4.127549 3.540992 -0.052880 -0.407590 -0.126520 18.418327 -10.753945 2.826491 -1.502813 1.817143 -16.031927 9.771850 -4.979048 11.002785 0.136465 -3.499343 3.348169 -0.141780 0.902940 0.322740 -3.847476 -1.205398 -6.834441 8.290526 0.809567 2.330983 -0.593059 0.463959 4.934039 -0.018724 -3.306727 -8.274459 -6.163806 4.077722 25.152805 -0.550020 1.449800 8.339190 -21.607044 -8.940409 3.681511 -54.898090 -7.340995 0.323318 -20.705101 -10.165735 0.211354 -4.301578 3.165707 -0.031290 0.606370 -0.508110 0.256670 21.937111 11.598831 5.481867 54.092550 4.382765 -5.337911 18.730176 20.543005 0.492547 2.267472 -1.660405 -0.259330 0.159500 0.154380 0.061860 
0.184780 17.202080 -4.852940 -4.082703 -7.459193 8.200366 -15.088728 12.939725 2.812703 2.981184 -1.632059 -14.202007 -8.986351 5.595879 10.138644 -0.248593 4.122972 3.511523 -0.045840 -0.402370 -0.112110 18.410963 -10.738740 2.887411 -1.326297 1.689607 -15.197339 9.974316 -4.783904 9.292177 0.115651 -3.465614 3.357052 -0.146590 0.869290 0.335130 -3.821630 -1.210757 -6.895428 8.173416 1.121349 2.660443 0.018750 0.757710 5.280380 -0.017488 -3.365985 -8.746993 -6.321006 4.192803 25.620891 -0.750610 1.741570 7.656090 -21.393181 -9.882944 4.174434 -54.009087 -6.989305 -0.216813 -24.087666 -12.377084 0.648923 -4.271116 3.200035 -0.004480 0.589010 -0.482390 0.237180 21.807341 12.740327 5.951294 52.375964 4.583982 -5.189341 22.296168 21.375842 1.115367 2.252210 -1.675571 -0.247250 0.143920 0.163430 0.047450 
0.167310 17.208850 -4.874090 -4.390761 -8.131046 8.692744 -15.080095 12.911921 2.798482 3.191786 -1.783916 -15.448008 -8.743400 5.670382 11.077085 -0.259247 4.140194 3.511905 -0.083210 -0.446980 -0.143920 18.421120 -10.737083 2.941108 -0.518775 1.770547 -15.388848 9.484822 -4.519705 8.420096 0.149193 -3.395380 3.388201 -0.163780 0.918930 0.354630 -3.841053 -1.134962 -6.913512 8.228894 1.140046 2.813983 0.110940 0.793610 5.876204 0.010343 -3.410710 -9.368537 -6.135047 4.128345 24.473950 -1.119000 1.777850 8.214680 -19.736442 -10.499418 4.929803 -53.645465 -6.149790 -1.674862 -29.055240 -18.054062 1.901869 -4.285381 3.272910 -0.034780 0.628970 -0.512950 0.237550 20.153651 13.535303 6.272789 51.232133 5.345527 -5.066845 28.600397 24.132395 2.434798 2.232013 -1.758227 -0.255490 0.145900 0.189850 0.059610 
0.161770 17.226350 -4.920650 -4.646033 -8.898447 8.997140 -15.072275 12.937326 2.838618 3.401298 -1.956321 -16.853903 -8.634997 5.852067 12.515262 -0.310284 4.153691 3.465565 -0.070170 -0.453890 -0.117490 18.409468 -10.727268 3.031112 0.370296 1.892312 -15.627182 8.980866 -4.249618 7.525485 0.136059 -3.221314 3.433775 -0.174670 0.864690 0.340330 -3.817869 -1.160742 -7.063963 8.285602 1.257770 4.113234 0.279557 1.102042 6.195913 0.139434 -3.794022 -10.500233 -6.761618 4.043572 24.542817 -0.565970 1.298890 6.471360 -18.407004 -11.727355 6.064248 -53.130066 -4.610887 -3.854497 -35.474176 -26.666194 4.507251 -4.179834 3.319395 0.057690 0.563260 -0.468710 0.217030 18.660334 15.336917 7.099931 49.605787 5.797122 -5.468752 35.052702 28.234939 4.467540 2.211383 -1.778761 -0.271580 0.157640 0.199630 0.029310 
0.153380 17.229090 -4.976640 -4.776944 -9.218402 9.930092 -15.089259 12.875596 2.911016 3.570541 -2.376917 -19.509581 -8.763859 6.135802 14.535200 -0.345925 4.170545 3.392114 0.044600 -0.310080 -0.035580 18.396516 -10.676135 3.067801 1.004682 2.214056 -16.796124 8.833921 -4.071169 7.529563 0.111954 -3.072499 3.447105 -0.092910 0.772730 0.347020 -3.773397 -1.139654 -7.113001 7.949537 1.438533 5.177241 0.303675 1.452528 6.180822 0.375341 -3.847022 -10.508944 -6.445769 3.639119 22.442953 -0.679480 1.187350 3.022850 -17.881318 -10.981517 6.080516 -52.808201 -4.099655 -4.817528 -39.708401 -34.132219 7.642285 -4.097823 3.419187 0.082480 0.510060 -0.406120 0.223930 17.690905 14.910997 6.875335 48.050737 6.393213 -5.198678 41.671447 32.442597 7.192544 2.189534 -1.884246 -0.231700 0.143390 0.143590 0.013100 
0.142410 17.226800 -5.036960 -5.015979 -8.435887 10.886438 -15.124245 12.798317 3.009613 4.074791 -2.816121 -22.093256 -8.845360 6.292665 15.878276 -0.411859 4.221939 3.331552 0.124050 -0.231140 0.050660 18.373513 -10.579779 3.109762 1.785805 2.630750 -18.106912 8.833747 -3.939979 7.532221 0.090272 -2.925855 3.457046 -0.038530 0.709140 0.361790 -3.700685 -1.172297 -7.188226 7.661349 1.249060 6.424618 0.247875 1.461856 6.215059 0.851835 -3.415214 -10.612854 -5.331898 2.803331 20.449599 -1.664930 1.302420 -0.053030 -17.257726 -10.014281 6.058613 -53.274828 -3.653004 -5.675954 -42.311385 -42.883017 11.431249 -4.038091 3.478760 0.136400 0.475050 -0.352280 0.223120 16.098877 13.814301 6.793054 47.866573 6.287275 -5.436425 48.704335 39.403730 11.616961 2.154659 -1.976129 -0.229520 0.146260 0.108580 -0.020460 
0.119730 17.226710 -5.098990 -5.040818 -8.863069 11.238923 -15.149781 12.777158 3.158890 4.533886 -3.093334 -23.912508 -9.478766 6.526703 16.578013 -0.398629 4.219407 3.272242 0.215330 -0.104810 0.106850 18.340322 -10.518797 3.125197 2.300970 2.938226 -19.134762 8.591980 -3.941989 8.586574 0.043717 -2.776383 3.482719 0.002750 0.599970 0.344920 -3.606534 -1.272255 -7.317332 7.085694 1.450505 8.835620 -0.010585 2.064061 5.729516 1.153853 -3.735385 -10.761500 -5.674147 2.950837 19.450701 -0.833150 1.413530 -3.916600 -16.859621 -8.252521 5.814077 -54.241321 -3.243812 -6.393438 -44.001681 -52.498912 15.878673 -3.895776 3.557309 0.202350 0.377810 -0.261620 0.234760 15.125469 12.681829 6.975542 48.612884 5.525190 -5.964597 54.525987 47.234103 17.078447 2.166189 -2.023387 -0.188450 0.138970 0.051510 -0.027880 
0.111480 17.228800 -5.162840 -4.824641 -7.803975 10.850568 -15.192316 12.907518 3.308828 4.419277 -3.462888 -25.377399 -8.975884 6.660532 18.290832 -0.442002 4.324957 3.213527 0.178590 -0.201510 0.161820 18.268217 -10.437340 3.156933 2.396294 3.250920 -20.069629 8.367668 -4.056346 9.809679 0.037950 -2.622607 3.517482 -0.063080 0.529520 0.318220 -3.439552 -1.652137 -7.515561 6.775975 1.049935 12.807448 -0.627700 2.303339 4.682902 1.795284 -4.166310 -11.348999 -6.310848 2.115567 18.939518 -1.554480 1.357480 -7.292530 -17.577305 -7.677610 5.644173 -54.756091 -2.932856 -7.592103 -41.773431 -62.101718 18.264903 -3.805058 3.505937 0.340380 0.293430 -0.212040 0.181270 14.566109 12.744309 8.002116 50.398295 3.595937 -7.731039 59.154954 56.043615 23.047208 2.204718 -1.940654 -0.240640 0.160690 0.078330 -0.095470 
